<?xml version="1.0" standalone="no"?>
<!DOCTYPE svg PUBLIC "-//W3C//DTD SVG 20010904//EN"
 "http://www.w3.org/TR/2001/REC-SVG-20010904/DTD/svg10.dtd">
<svg version="1.0" xmlns="http://www.w3.org/2000/svg"
 width="60.000000pt" height="60.000000pt" viewBox="0 0 60.000000 60.000000"
 preserveAspectRatio="xMidYMid meet">
<metadata>
Created by potrace 1.15, written by Peter Selinger 2001-2017
</metadata>
<g transform="translate(0.000000,60.000000) scale(0.100000,-0.100000)"
fill="#000000" stroke="none">
<path d="M263 441 l-53 -58 0 -181 0 -182 170 0 170 0 0 88 c0 81 2 90 25 112
16 15 25 34 25 54 0 30 -1 30 -71 -42 -39 -39 -75 -72 -79 -72 -4 0 -13 7 -20
16 -12 13 -3 26 60 89 70 70 75 74 92 58 17 -15 18 -13 18 42 0 53 -1 56 -17
44 -10 -8 -21 -18 -25 -24 -4 -5 -8 18 -8 53 l0 62 -117 -1 -118 -1 -52 -57z
m247 -42 l0 -62 -69 -69 c-57 -57 -71 -77 -81 -119 -7 -29 -9 -54 -4 -59 14
-13 102 15 129 40 l25 23 0 -51 0 -52 -87 0 c-49 0 -112 -3 -140 -6 l-53 -7 0
162 0 161 55 0 55 0 0 50 0 50 85 0 85 0 0 -61z"/>
</g>
</svg>
